Coordinates
version=1
nRows=16
nColumns=40
inDegrees=yes

Units are S.I. units (second, meters, Newtons, ...)
Angles are in degrees.

endheader
time	pelvis_tilt	pelvis_list	pelvis_rotation	pelvis_tx	pelvis_ty	pelvis_tz	hip_flexion_r	hip_adduction_r	hip_rotation_r	knee_angle_r	knee_angle_r_beta	ankle_angle_r	subtalar_angle_r	mtp_angle_r	hip_flexion_l	hip_adduction_l	hip_rotation_l	knee_angle_l	knee_angle_l_beta	ankle_angle_l	subtalar_angle_l	mtp_angle_l	lumbar_extension	lumbar_bending	lumbar_rotation	arm_flex_r	arm_add_r	arm_rot_r	elbow_flex_r	pro_sup_r	wrist_flex_r	wrist_dev_r	arm_flex_l	arm_add_l	arm_rot_l	elbow_flex_l	pro_sup_l	wrist_flex_l	wrist_dev_l
     29.72000000	     -4.91971965	     -5.05622364	      2.75673768	      0.91806576	      0.92182730	      0.48823989	      1.30571143	      3.76825200	    -17.47967813	     12.03793051	     12.03793051	     17.21162371	      7.04782090	     -2.60269631	     31.29655928	     -8.13240348	     -4.17069878	     19.39984037	     19.39984037	      3.48633633	     -7.36318763	      6.43508760	     -9.06441493	      8.78789253	      4.05446615	     38.68881586	    -16.46088700	     -3.87692100	     84.39332069	     44.72509797	      0.00000000	      0.00000000	    -14.07195622	     -7.10959147	      3.69840538	     30.55815352	     45.19114304	      0.00000000	      0.00000000
     29.73400000	     -4.80687753	     -5.01405020	      2.53381401	      0.91915958	      0.92075039	      0.48616917	      0.64960385	      3.58397604	    -17.14980899	     12.13512666	     12.13512666	     17.65830797	      7.08847156	     -2.69572846	     30.90111769	     -7.98134968	     -4.09531314	     20.27903558	     20.27903558	      3.23909223	     -7.76396785	      6.36170047	     -8.86389533	      8.60839586	      4.08662644	     38.42028671	    -16.14194223	     -3.72392119	     84.67212964	     44.71195219	      0.00000000	      0.00000000	    -14.13127154	     -7.14353799	      3.68827644	     30.54083416	     45.19272637	      0.00000000	      0.00000000
     29.74800000	     -4.67907934	     -4.99074310	      2.38129936	      0.92034348	      0.91975856	      0.48386031	     -0.00056781	      3.39974084	    -16.88491074	     12.27368517	     12.27368517	     18.08329146	      7.02858262	     -2.75095833	     30.55056740	     -7.79648950	     -3.85362058	     21.22258125	     21.22258125	      3.12302713	     -8.25649864	      6.21218986	     -8.69833549	      8.45335620	      3.98410140	     38.03059230	    -15.82021858	     -3.51631377	     85.09947529	     44.69175547	      0.00000000	      0.00000000	    -14.07639759	     -7.18531493	      3.65909931	     30.59613439	     45.19877352	      0.00000000	      0.00000000
     29.76200000	     -4.68932278	     -5.03760659	      2.26886545	      0.92136470	      0.91870272	      0.48129366	     -0.38792006	      3.26520047	    -16.46556390	     12.61433116	     12.61433116	     18.59914946	      6.58001324	     -2.24279127	     30.36692338	     -7.53750496	     -3.11904090	     22.05057281	     22.05057281	      2.80780927	     -9.51811348	      5.76527324	     -8.53524075	      8.45185043	      3.99614431	     36.98055002	    -16.05739999	     -2.93892410	     87.67489714	     44.60432417	      0.00000000	      0.00000000	    -14.04997112	     -7.24402565	      3.31597818	     31.13212315	     45.25602733	      0.00000000	      0.00000000
     29.77600000	     -4.61223441	     -4.98374590	      2.13612282	      0.92246062	      0.91808187	      0.47858367	     -0.84253643	      2.96140643	    -16.25079568	     13.02186280	     13.02186280	     19.06140601	      6.53628570	     -1.86477911	     30.07430449	     -7.29123871	     -2.84208006	     22.86714410	     22.86714410	      2.83652906	    -10.13098055	      5.21197717	     -8.42147032	      8.28862902	      4.20189057	     35.96155332	    -16.32907402	     -2.79844366	     88.61177571	     44.58551701	      0.00000000	      0.00000000	    -13.64243111	     -7.32494689	      3.04690933	     31.37902858	     45.30732730	      0.00000000	      0.00000000
     29.79000000	     -4.49114261	     -4.87598422	      2.02886733	      0.92356801	      0.91791841	      0.47569625	     -1.39028827	      2.59977655	    -16.06701836	     13.31210913	     13.31210913	     19.23618849	      6.47418799	     -1.85815280	     29.67690854	     -7.00339151	     -2.68708810	     23.55419778	     23.55419778	      3.18276701	    -10.50759479	      4.92976883	     -8.34158423	      8.05102521	      4.01491360	     35.14857088	    -16.12005231	     -2.59855898	     88.59499388	     44.57910946	      0.00000000	      0.00000000	    -13.25070900	     -7.41466283	      2.99468551	     31.50342118	     45.32155316	      0.00000000	      0.00000000
     29.80400000	     -4.38656151	     -4.77652015	      1.94217233	      0.92455540	      0.91803018	      0.47262683	     -1.81787867	      2.20517037	    -15.90000623	     13.76986284	     13.76986284	     19.34656898	      6.36502457	     -1.86886772	     29.31177677	     -6.70803440	     -2.47896562	     24.21215909	     24.21215909	      3.65502648	    -10.93406434	      4.61707784	     -8.29228139	      7.84384051	      3.80830975	     34.17529457	    -15.95122605	     -2.34472714	     88.54369241	     44.57096309	      0.00000000	      0.00000000	    -12.75264019	     -7.50782243	      2.92600874	     31.68762297	     45.33954778	      0.00000000	      0.00000000
     29.81800000	     -4.49003893	     -4.61495287	      1.78787609	      0.92513594	      0.91803732	      0.46938654	     -1.52796730	      1.56519241	    -15.69873343	     15.14813715	     15.14813715	     19.60199374	      6.02611215	     -1.88584845	     29.14493335	     -6.29625299	     -2.20006549	     24.76746402	     24.76746402	      4.07720934	    -11.82437421	      4.32152207	     -8.10467437	      7.55602421	      3.97465928	     32.80108842	    -16.48608658	     -1.89337205	     88.99329996	     44.54801312	      0.00000000	      0.00000000	    -12.06378873	     -7.63179334	      2.58096787	     32.06308977	     45.40147431	      0.00000000	      0.00000000
     29.83200000	     -4.42010353	     -4.62414293	      1.68576706	      0.92594472	      0.91883539	      0.46614495	     -1.82187070	      1.23846780	    -15.57849772	     15.69785264	     15.69785264	     19.37072898	      5.94669133	     -1.87709160	     28.65829152	     -6.11332651	     -2.05093714	     25.07818815	     25.07818815	      4.77040136	    -12.12271789	      4.01485735	     -8.14903823	      7.48035958	      3.61989628	     31.75483519	    -16.30756576	     -1.65295106	     88.80052393	     44.54366842	      0.00000000	      0.00000000	    -11.43192596	     -7.70071804	      2.52456041	     32.29399859	     45.41932501	      0.00000000	      0.00000000
     29.84600000	     -4.47299960	     -4.32400705	      1.50288739	      0.92630427	      0.91940123	      0.46266103	     -1.10153031	      0.28334691	    -15.33394750	     17.95271179	     17.95271179	     19.40329137	      5.33568775	     -2.40869496	     28.28963798	     -5.60523993	     -2.06837530	     25.37210556	     25.37210556	      5.24029439	    -12.69448016	      3.79400925	     -7.98897371	      7.04731049	      3.93929212	     29.99079384	    -16.86226999	     -1.12641187	     88.64482095	     44.53460612	      0.00000000	      0.00000000	    -10.56916297	     -7.90130875	      2.10440237	     32.78626769	     45.49222105	      0.00000000	      0.00000000
     29.86000000	     -4.51013664	     -4.18697489	      1.32493063	      0.92666315	      0.92028242	      0.45926845	     -0.46322921	     -0.45238323	    -15.08156547	     20.00366639	     20.00366639	     19.06132664	      4.73045438	     -3.03905781	     27.80570642	     -5.28137393	     -2.11173926	     25.46678197	     25.46678197	      5.81397352	    -13.05527066	      3.55958898	     -7.92125989	      6.78258591	      3.98048417	     28.37456178	    -17.16180955	     -0.66834460	     88.41429598	     44.53022655	      0.00000000	      0.00000000	     -9.71691014	     -8.03801436	      1.71134357	     33.26174782	     45.55984732	      0.00000000	      0.00000000
     29.87400000	     -4.57565118	     -4.07766848	      1.12768846	      0.92685934	      0.92116385	      0.45591287	      0.41234525	     -1.15667883	    -14.63378831	     22.28819050	     22.28819050	     17.79337401	      3.43480020	     -5.72583155	     27.31117397	     -4.98317302	     -2.15857279	     25.46602451	     25.46602451	      6.28539077	    -13.44307972	      3.22469452	     -7.88173452	      6.54449177	      4.16137901	     26.41260735	    -17.70030757	     -0.02474701	     88.63555366	     44.54410571	      0.00000000	      0.00000000	     -8.85492730	     -8.02288569	      0.14981923	     34.02451969	     45.78120115	      0.00000000	      0.00000000
     29.88800000	     -4.59099942	     -3.92651934	      0.89883126	      0.92693586	      0.92214555	      0.45265612	      1.60662908	     -2.02852199	    -14.25148798	     25.32212952	     25.32212952	     17.11975586	      2.49919131	     -6.59832444	     26.68327765	     -4.72070832	     -2.50520678	     25.34128882	     25.34128882	      6.88533305	    -13.32823240	      2.89717354	     -7.88660587	      6.23515087	      4.00175723	     24.87140006	    -17.66049640	      0.34998053	     87.77568768	     44.56080599	      0.00000000	      0.00000000	     -7.94363262	     -8.23514171	     -0.08534772	     34.48941796	     45.82436893	      0.00000000	      0.00000000
     29.90200000	     -4.71758480	     -3.85477155	      0.68310516	      0.92675065	      0.92286111	      0.44954598	      3.13116945	     -2.68289215	    -13.41761291	     28.48016237	     28.48016237	     15.16396348	      0.13224873	    -10.18235611	     26.16975668	     -4.53350160	     -2.81491032	     25.13522818	     25.13522818	      7.22089314	    -13.27696231	      2.19591679	     -7.77099076	      6.00746245	      3.76725231	     23.30674513	    -17.75987952	      1.04194829	     86.77118585	     44.60729785	      0.00000000	      0.00000000	     -7.20089216	     -8.32611088	     -1.16548139	     35.68703327	     45.96512752	      0.00000000	      0.00000000
     29.91600000	     -4.73535466	     -3.68504435	      0.45331166	      0.92650794	      0.92359261	      0.44651680	      4.89446641	     -3.64303228	    -13.01699983	     32.38682582	     32.38682582	     14.00161414	     -1.10493640	    -10.99116276	     25.54365235	     -4.27681189	     -3.25943691	     24.97568469	     24.97568469	      7.75372143	    -13.02155378	      1.82224255	     -7.80330361	      5.66911988	      3.59929712	     21.57832327	    -17.65847414	      1.50483509	     85.90925022	     44.61927003	      0.00000000	      0.00000000	     -6.32991714	     -8.71226847	     -1.39829633	     36.17724763	     46.00532793	      0.00000000	      0.00000000
     29.93000000	     -4.76474223	     -3.51381679	      0.26310893	      0.92607409	      0.92416109	      0.44357195	      6.87237605	     -4.52691676	    -12.40718349	     36.50265328	     36.50265328	     12.59935953	     -2.79233106	    -11.66267058	     24.94167806	     -4.01488636	     -3.70613451	     24.79156865	     24.79156865	      8.23236556	    -12.67733122	      1.39950848	     -7.83518396	      5.34923331	      3.37866923	     19.79691923	    -17.58157280	      1.96756130	     84.99337630	     44.63189202	      0.00000000	      0.00000000	     -5.33336897	     -9.08044146	     -1.63309042	     36.82746363	     46.04783589	      0.00000000	      0.00000000
